<?xml version="1.0" encoding="UTF-8" standalone="no"?>
<!DOCTYPE svg PUBLIC "-//W3C//DTD SVG 1.1//EN" "http://www.w3.org/Graphics/SVG/1.1/DTD/svg11.dtd">
<svg width="100%" height="100%" viewBox="0 0 424 424" version="1.1" xmlns="http://www.w3.org/2000/svg" xmlns:xlink="http://www.w3.org/1999/xlink" xml:space="preserve" xmlns:serif="http://www.serif.com/" style="fill-rule:evenodd;clip-rule:evenodd;stroke-linejoin:round;stroke-miterlimit:2;">
    <g id="Background" transform="matrix(1.374023,0,0,1.374023,-494,-92)">
        <path d="M569.418,128.891C586.551,135.029 574.015,149.464 562.135,171.278C558.997,177.04 563.565,176.045 574.256,183.795C577.589,186.951 577.531,186.836 580.889,190.076C585.62,194.64 610.454,189.146 624.278,226.585C625.662,230.335 632.636,226.245 646.449,235.714C646.539,235.783 646.903,235.352 656.843,245.492C657.289,247.43 657.249,247.431 657.325,247.585C659.302,251.594 673.856,281.104 645.233,302.143C634.267,310.204 630.686,305.29 623.894,312.859C562.112,383.058 463.365,383.484 401.086,312.951C395.891,307.638 387.985,311.101 384.742,305.38C382.135,300.781 388.741,299.4 389.374,299.356C393.36,299.251 399.485,295.854 401.665,294.873C424.396,284.635 416,260.501 444.431,253.152C450.139,251.676 444.809,223.555 478.499,215.496C479.824,215.179 480.622,214.762 479.527,198.498C479.106,192.25 447.585,182.793 444.28,172.588C437.611,151.992 480.323,152.184 482.234,142.439C482.72,139.96 487.875,113.665 488.334,111.464C489.983,103.562 497.5,99.672 503.337,101.894C506.132,102.958 507.802,103.594 528.922,129.153C534.393,135.775 552.039,127.806 569.418,128.891Z" style="fill:rgb(52,55,121);"/>
        <path d="M569.418,128.891C552.039,127.806 534.393,135.775 528.922,129.153C507.802,103.594 506.132,102.958 503.337,101.894C497.5,99.672 489.983,103.562 488.334,111.464C487.875,113.665 482.72,139.96 482.234,142.439C480.323,152.184 437.611,151.992 444.28,172.588C447.585,182.793 479.106,192.25 479.527,198.498C480.622,214.762 479.824,215.179 478.499,215.496C444.809,223.555 450.139,251.676 444.431,253.152C416,260.501 424.396,284.635 401.665,294.873C400.971,295.185 399.747,295.998 399.376,295.96C399.24,295.636 399.089,294.501 398.73,294.296C397.244,291.971 393.681,288.151 396.72,286.975C397.14,286.813 410.806,283.796 408.714,277.426C406.272,269.991 392.951,285.222 389.965,279.257C383.175,265.689 381.259,255.624 380.85,253.475C379.959,251.135 376.214,241.297 376.322,222.497C376.446,201.08 382.374,182.804 383.45,179.486C383.57,179.794 383.016,180.118 383.136,180.426C384.16,183.066 384.967,181.872 387.601,180.752C423.533,165.474 426.653,164.888 424.077,162.908C417.812,158.092 408.048,165.875 406.536,164.459C401.251,159.508 401.417,158.824 393.639,157.676C399.604,142.279 425.082,116.158 444.68,105.873C535.896,58.003 608.169,119.585 622.335,143.725C622.322,143.731 621.988,143.097 617.678,146.709C612.87,150.738 612.602,156.61 610.496,156.467C608.281,156.315 602.066,154.131 594.806,158.98C591.454,161.22 590.216,164.731 592.423,164.828C610.486,165.616 629.387,165.027 632.6,164.927C633.442,164.901 633.429,164.999 633.5,164.986C634.915,164.729 634.139,164.102 634.595,163.471C650.103,194.822 648.225,220.204 648.083,229.49C642.415,224.876 642.442,224.808 635.401,222.835C631.434,221.725 630.554,222.57 629.03,218.737C617.177,188.912 580.564,180.608 574.256,183.795C563.565,176.045 558.997,177.04 562.135,171.278C574.015,149.464 586.551,135.029 569.418,128.891Z" style="fill:rgb(158,200,237);"/>
        <path d="M542.216,219.894C553.609,202.556 595.75,192.236 613.522,230.66C592.321,239.066 594.302,257.105 597.062,254.018C599.962,250.774 598.994,250.115 604.325,244.342C609.031,246.026 608.556,242.773 613.519,241.889C636.721,237.759 658.391,257.006 651.78,276.494C651.256,278.039 651.988,277.842 653.524,279.508C644.535,303.763 618.217,304.771 607.389,299.802C603.364,297.955 602.295,296.331 600.029,300.194C580.931,332.745 540.128,329.451 522.671,313.331C517.088,308.175 517.584,306.741 514.434,307.296C513.853,307.398 495.89,325.103 471.612,319.1C463.95,317.206 453.728,311.648 453.671,309.447C453.614,307.227 452.538,307.587 452.3,307.196C469.231,295.765 468.737,291.455 468.518,289.55C476.489,282.497 473.275,280.698 472.519,280.831C466.137,281.956 444.872,306.968 405.527,304.298C404.252,304.212 402.936,304.432 401.696,304.119C401.449,304.057 401.556,302.545 401.556,302.545C402.762,301.889 402.664,301.939 402.762,301.889C428.09,289.218 420.886,281.922 432.84,267.768C440.466,258.737 450.925,260.209 451.495,260.185C455.295,260.03 453.706,258.286 453.73,254.501C453.822,240.575 464.353,227.551 472.495,225.544C473.145,225.137 473.795,224.73 474.445,224.323C474.925,224.179 480.455,222.521 480.709,224.451C481.85,233.127 480.763,233.939 487.163,239.846C488.548,241.124 474.491,256.95 482.302,258.32C483.791,255.843 496.129,235.305 513.4,239.921C522.18,242.268 528.951,247.662 526.272,250.275C521.925,254.514 517.186,257.907 520.511,263.482C521.072,263.718 521.633,263.953 522.193,264.188C522.297,264.665 522.111,265.175 522.214,265.652C522.948,269.04 537.234,248.515 558.405,253.993C564.391,255.542 565.731,257.625 566.36,254.565C566.61,253.353 566.614,253.362 566.567,253.268C566.275,252.695 565.918,253.697 565.662,253.195C573.309,248.539 560.569,243.029 556.55,242.268C554.878,241.951 553.183,241.767 551.511,241.452C548.289,240.844 550.94,230.885 542.216,219.894Z" style="fill:rgb(43,109,181);"/>
        <path d="M497.396,108.353C497.772,109.208 499.15,110.429 499.533,110.435C501.029,110.456 510.198,123.275 517.934,132.222C528.598,144.556 530.445,143.413 546.564,140.883C563.686,138.195 565.236,140.215 567.595,135.249C574.129,137.828 570.598,143.351 567.858,147.721C566.581,145.423 565.792,144.147 564.564,146.415C552.359,168.958 545.051,169.17 552.984,187.196C554.733,191.171 556.5,191.077 554.728,194.974C547.92,198.619 547.851,198.293 541.769,202.922C533.547,211.501 533.888,212.687 531.607,212.01C530.002,211.534 516.888,207.645 510.693,212.677C509.641,213.531 510.525,213.607 511.508,214.43C514.247,218.657 517.622,214.079 530.188,222.995C531.205,223.717 537.515,228.194 539.381,235.59C539.465,235.923 539.959,237.885 541.153,239.5C541.83,240.415 542.269,239.715 542.903,240.644C543.277,241.191 542.216,241.058 542.546,241.541C536.152,244.269 535.229,246.613 530.315,241.677C511.495,222.775 489.153,242.781 487.899,229.412C485.722,206.186 488.701,194.158 481.334,189.762C456.822,175.136 438.838,169.827 458.518,161.541C487.727,150.137 487.384,148.584 488.135,145.418C492.959,125.084 493.211,112.504 497.396,108.353Z" style="fill:rgb(227,69,183);"/>
        <path d="M622.335,143.725C608.169,119.585 535.896,58.003 444.68,105.873C425.082,116.158 399.604,142.279 393.639,157.676C388.889,163.628 384.525,176.658 383.45,179.486C382.374,182.804 376.446,201.08 376.322,222.497C376.214,241.297 379.959,251.135 380.85,253.475C381.259,255.624 383.175,265.689 389.965,279.257C392.951,285.222 406.272,269.991 408.714,277.426C410.806,283.796 397.14,286.813 396.72,286.975C393.681,288.151 398.658,293.374 400.144,295.698C399.119,296.299 395.342,298.785 390.102,299.356C389.625,299.084 389.458,298.84 388.095,296.753C387.686,296.28 385.012,291.816 383.871,290.169C383.207,288.905 382.542,287.641 381.877,286.376C342.651,209.321 379.694,130.844 439.259,97.083C549.26,34.736 678.32,131.213 656.843,245.492C646.903,235.352 646.539,235.783 646.449,235.714C648.325,234.095 647.578,233.731 648.083,229.49C648.225,220.204 650.103,194.822 634.595,163.471C627.444,150.02 624.862,146.677 622.335,143.725Z" style="fill:rgb(42,116,184);"/>
        <path d="M613.051,309.73C576.889,350.068 513.422,369.833 455.302,341.851C454.974,341.694 454.997,341.707 451.196,339.905C456.207,336.188 476.096,333.509 483.519,327.731C501.919,325.707 501.29,323.642 513.625,316.738C515.563,315.653 524.897,323.2 523.273,324.221C520.328,326.073 486.666,338.2 485.873,341.563C484.803,346.096 489.444,344.416 530.57,330.736C540.604,327.399 541.091,332.759 554.492,332.842C591.912,333.072 602.057,306.255 605.449,306.927C606.012,307.038 610.324,307.893 612.38,308.777C612.737,308.931 612.694,309.576 613.051,309.73Z" style="fill:rgb(208,229,247);"/>
        <path d="M574.256,183.795C580.564,180.608 617.177,188.912 629.03,218.737C630.554,222.57 631.434,221.725 635.401,222.835C642.442,224.808 642.415,224.876 648.083,229.49C647.578,233.731 648.325,234.095 646.449,235.714C632.636,226.245 625.662,230.335 624.278,226.585C610.454,189.146 585.62,194.64 580.889,190.076C577.531,186.836 577.589,186.951 574.256,183.795Z" style="fill:rgb(250,252,253);"/>
        <path d="M483.519,327.731C476.096,333.509 456.207,336.188 451.196,339.905C429.48,328.306 429.227,325.356 431.192,325.007C434.181,324.475 448.132,318.343 449.581,317.706C451.802,316.73 454.532,320.111 458.716,322.03C471.874,328.065 479.502,327.427 483.519,327.731Z" style="fill:rgb(181,214,241);"/>
        <path d="M542.216,219.894C540.188,217.233 538.751,216.664 541.986,212.942C567.034,184.131 611.176,201.684 616.711,227.453C617.283,230.116 616.094,229.678 613.522,230.66C595.75,192.236 553.609,202.556 542.216,219.894Z" style="fill:rgb(180,220,246);"/>
        <path d="M622.335,143.725C624.862,146.677 627.444,150.02 634.595,163.471C634.139,164.102 634.915,164.729 633.5,164.986C633.429,164.999 633.442,164.901 632.6,164.927C629.387,165.027 610.486,165.616 592.423,164.828C590.216,164.731 591.454,161.22 594.806,158.98C602.066,154.131 608.281,156.315 610.496,156.467C612.602,156.61 612.87,150.738 617.678,146.709C621.988,143.097 622.322,143.731 622.335,143.725Z" style="fill:rgb(235,246,252);"/>
        <path d="M393.639,157.676C401.417,158.824 401.251,159.508 406.536,164.459C408.048,165.875 417.812,158.092 424.077,162.908C426.653,164.888 423.533,165.474 387.601,180.752C384.967,181.872 384.16,183.066 383.136,180.426C383.016,180.118 383.57,179.794 383.45,179.486C384.525,176.658 388.889,163.628 393.639,157.676Z" style="fill:rgb(236,246,252);"/>
        <path d="M473.37,232.485C477.21,243.149 476.985,243.521 476.223,244.1C465.158,252.498 464.972,253.511 465.26,267.432C465.274,268.104 464.792,268.276 457.145,265.245C456.972,263.858 457.009,263.954 456.804,262.504C454.695,247.603 464.816,233.577 473.37,232.485Z" style="fill:rgb(67,133,199);"/>
        <g transform="matrix(0.650584,0,0,0.442995,147.807894,178.747867)">
            <path d="M468.518,289.55C468.737,291.455 469.231,295.765 452.3,307.196C451.978,307.391 444.919,312.697 428.527,318.574C420.927,321.298 421.17,318.298 414.944,313.229C415.096,312.765 414.558,312.247 414.71,311.783C415.207,310.268 440.793,314.212 468.518,289.55Z" style="fill:rgb(247,250,253);"/>
        </g>
        <path d="M604.325,244.342C625.728,224.491 663.29,241.421 653.524,279.508C651.988,277.842 651.256,278.039 651.78,276.494C658.391,257.006 636.721,237.759 613.519,241.889C608.556,242.773 609.031,246.026 604.325,244.342Z" style="fill:rgb(138,190,235);"/>
        <path d="M452.657,191.664C452.657,191.664 449.696,193.301 446.614,194.751C410.009,211.981 399.476,228.077 397.516,228.075C388.02,228.065 445.307,185.126 450.127,187.812C452.877,190.48 452.657,191.664 452.657,191.664Z" style="fill:rgb(228,244,253);"/>
        <path d="M497.396,108.353C502.615,106.705 502.341,109.038 512.678,120.363C526.203,135.182 525.197,139.087 537.463,138.113C546.345,137.408 561.906,134.827 567.595,135.249C565.236,140.215 563.686,138.195 546.564,140.883C530.445,143.413 528.598,144.556 517.934,132.222C510.198,123.275 501.029,110.456 499.533,110.435C499.15,110.429 497.772,109.208 497.396,108.353Z" style="fill:rgb(254,222,244);"/>
        <path d="M461.562,116.557L462.487,116.719C462.768,116.893 463.306,116.094 463.625,117.426C466.597,129.838 475.846,125.191 473.994,128.703C473.569,129.51 466.152,129.819 464.276,136.403C464.173,136.766 462.595,142.304 461.667,140.335C459.038,134.755 461.166,132.129 451.639,129.283L451.257,128.578C451.447,128.356 450.764,127.979 450.953,127.757C451.404,127.229 455.206,126.333 457.412,124.399C460.313,121.855 461.253,117.471 461.562,116.557Z" style="fill:rgb(204,35,174);"/>
        <path d="M565.662,253.195C565.918,253.697 566.275,252.695 566.567,253.268C566.614,253.362 566.61,253.353 566.36,254.565C565.731,257.625 564.391,255.542 558.405,253.993C537.234,248.515 522.948,269.04 522.214,265.652C522.111,265.175 522.297,264.665 522.193,264.188C525.206,261.628 533.195,248 550.513,248.114C555.183,248.144 564.51,252.64 565.662,253.195Z" style="fill:rgb(124,181,235);"/>
        <path d="M567.858,147.721C551.912,173.589 552.399,175.049 553.24,177.571C553.562,178.536 554.319,180.806 557.956,189.372C560.368,195.052 556.46,193.961 554.728,194.974C556.5,191.077 554.733,191.171 552.984,187.196C545.051,169.17 552.359,168.958 564.564,146.415C565.792,144.147 566.581,145.423 567.858,147.721Z" style="fill:rgb(245,123,205);"/>
        <path d="M530.525,169.543C538.474,166.01 533.207,184.252 528.782,181.056C520.43,175.026 516.519,179.347 513.567,180.722C511.571,181.652 508.996,177.625 509.245,175.46C510.033,168.611 515.844,177.964 530.525,169.543Z" style="fill:rgb(54,35,103);"/>
        <path d="M625.285,267.613C623.985,264.537 623.655,264.602 619.618,263.22C618.546,262.857 618.421,263.107 617.544,262.463C614.408,259.779 622.875,262.749 626.044,254.208C627.774,249.544 628.907,255.52 629.326,256.575C631.38,261.735 642.1,261.231 635.358,263.139C627.811,265.275 629.752,267.778 628.162,271.273C627.193,273.401 625.574,268.064 625.285,267.613Z" style="fill:rgb(239,252,253);"/>
        <path d="M511.508,214.43C514.728,214.386 539.607,214.04 543.008,239.5C543.031,239.666 542.974,239.651 542.546,241.541C542.216,241.058 543.277,241.191 542.903,240.644C542.269,239.715 541.83,240.415 541.153,239.5C539.959,237.885 539.465,235.923 539.381,235.59C537.515,228.194 531.205,223.717 530.188,222.995C517.622,214.079 514.247,218.657 511.508,214.43Z" style="fill:rgb(234,126,209);"/>
        <path d="M455.026,212.23C452.45,218.519 452.544,209.549 448.362,207.789C447.617,207.476 441.494,206.31 447.453,204.394C453.063,202.591 452.833,193.593 454.822,199.315C457.102,205.873 465.117,205.085 461.61,206.598C457.406,208.412 457.268,208.334 455.026,212.23Z" style="fill:rgb(201,38,160);"/>
        <path d="M589.494,218.852C588.747,218.735 573.699,215.748 575.038,211.373C577.323,203.902 602.31,216.189 589.494,218.852Z" style="fill:rgb(224,246,251);"/>
        <path d="M509.609,160.414C514.919,169.729 504.823,161.832 502.729,162.971C502.191,163.263 496.678,172.258 496.226,165.529C495.933,161.152 502.422,153.34 509.609,160.414Z" style="fill:rgb(60,22,91);"/>
        <path d="M538.875,118.433C538.435,117.237 538.217,113.395 535.561,112.386C532.012,111.037 534.671,110.034 536.21,109.125C539.079,107.43 538.94,102.323 540.496,103.508C542.202,104.806 539.227,107.674 546.547,110.461C548.66,111.265 544.744,112.41 544.506,112.509C539.613,114.561 540.589,123.09 538.875,118.433Z" style="fill:rgb(235,251,253);"/>
        <path d="M532.584,149.944C533.384,149.983 541.359,150.373 540.882,155.547C540.55,159.147 538.917,156.425 535.53,155.403C531.444,154.17 530.459,159.289 530.364,159.411C527.608,162.941 522.973,153.322 532.584,149.944Z" style="fill:rgb(56,36,97);"/>
        <path d="M492.223,178.714C489.603,173.596 497.491,172.308 498.465,172.251C509.134,171.625 499.868,184.65 492.223,178.714Z" style="fill:rgb(252,125,215);"/>
        <path d="M545.356,167.149C534.964,169.705 538.951,162.362 541.425,161.306C545.814,159.433 553.725,162.155 545.356,167.149Z" style="fill:rgb(254,157,218);"/>
        <path d="M428.945,187.003C427.407,181.89 425.79,183.284 424.646,182.291C422.026,180.02 426.225,181.005 428.013,178.111C430.424,174.209 430.829,177.95 432.593,179.411C434.343,180.861 436.176,180.995 434.297,182.235C431.508,184.076 431.576,184.127 430.147,187.195C429.808,187.923 429.574,187.886 429.5,187.874C428.86,187.771 429.119,187.58 428.945,187.003Z" style="fill:rgb(187,62,173);"/>
        <path d="M486.595,288.612C487.305,287.792 489.246,287.694 490.129,285.201C490.177,285.066 491.032,282.653 491.665,284.277C493.226,288.282 494.445,287.946 495.514,288.481C495.514,288.481 496.756,288.813 496.314,289.523C495.785,290.372 495.555,290.389 494.598,290.654C492.714,291.175 493.14,291.655 492.253,293.352C490.398,296.898 490.312,293.035 489.208,291.761C487.946,290.303 487.286,291.508 485.867,290.124C485.603,289.867 486.229,289.035 486.595,288.612Z" style="fill:rgb(229,250,253);"/>
        <path d="M429.155,278.248C433.573,280.089 437.064,279.321 434.378,283.393C431.146,288.291 430.063,285.307 429.219,284.974C425.091,283.347 426.865,281.946 429.155,278.248Z" style="fill:rgb(22,90,168);"/>
        <path d="M562.747,184.518C564.974,184.791 564.977,184.647 566.799,186.093C567.998,187.044 571.064,189.048 571.361,189.551C571.506,189.797 567.658,196.684 562.747,184.518Z" style="fill:rgb(177,55,153);"/>
        <path d="M507.572,130.451C503.915,124.638 507.104,125.329 507.507,125.377C508.222,125.463 512.257,128.588 512.603,131.504C513.082,135.538 508.694,132.233 507.572,130.451Z" style="fill:rgb(254,225,246);"/>
        <path d="M561.731,278.675C562.399,278.004 562.48,277.46 563.318,277C564.262,277.373 564.159,279.283 565.515,280.486C565.515,280.486 566.911,281.168 566.9,281.493C566.888,281.819 566.836,281.853 565.445,282.44C563.747,283.157 563.776,286.071 561.887,284.23C560.503,282.881 560.566,282.986 558.784,282.166C557.845,281.734 557.931,281.349 558.855,280.861C560.482,280.001 561.048,279.264 561.731,278.675Z" style="fill:rgb(222,249,254);"/>
        <path d="M442.904,143.912C439.844,149.282 437.87,141.747 437.905,141.702C442.177,136.162 444.631,142.625 444.185,143.199C443.885,143.585 443.204,143.526 442.904,143.912Z" style="fill:rgb(156,58,171);"/>
        <path d="M436.197,222.181C435.144,222.182 435.028,222.429 434.428,221.58C433.127,219.739 432.24,219.505 433.844,217.829C435.489,216.11 435.816,216.911 437.644,218.362C439.655,219.958 437.709,220.095 436.197,222.181Z" style="fill:rgb(173,58,155);"/>
        <path d="M407.704,197.304C404.121,194.885 407.253,193.991 407.557,193.559C408.959,191.57 410.166,193.755 410.809,194.216C412.9,195.717 410.756,196.819 408.682,198.045C408.356,197.798 408.03,197.551 407.704,197.304Z" style="fill:rgb(219,245,250);"/>
        <path d="M596.312,224.692C596.142,224.39 594.218,220.97 597.504,220.521C601.356,219.995 601.416,227.612 596.312,224.692Z" style="fill:rgb(191,230,250);"/>
        <path d="M562.453,215.507C563.888,209.839 567.23,214.487 566.226,216.317C564.491,219.48 562.594,215.782 562.453,215.507Z" style="fill:rgb(188,232,251);"/>
        <path d="M503.306,269.687C501.376,269.556 501.886,266.51 504.484,266.322C506.953,266.143 506.311,269.89 503.306,269.687Z" style="fill:rgb(211,245,253);"/>
        <path d="M551.595,146.665C546.249,146.74 550.724,143.173 552.086,143.942C553.689,144.848 553.485,146.638 551.595,146.665Z" style="fill:rgb(254,214,240);"/>
        <path d="M515.151,138.627C513.965,136.582 514.726,135.21 516.578,135.972C518.601,136.804 517.346,140.716 515.151,138.627Z" style="fill:rgb(254,229,249);"/>
    </g>
</svg>
